<svg id="af8e9fb8-4fcc-4cfd-b20b-7473b6e36f69" data-name="Layer 1" xmlns="http://www.w3.org/2000/svg" xmlns:xlink="http://www.w3.org/1999/xlink" viewBox="0 0 350 100"><defs><linearGradient id="a2b0725c-29dd-4d83-be8a-2a33d1a2857b" x1="12.68" y1="53.22" x2="55.17" y2="53.22" gradientUnits="userSpaceOnUse"><stop offset="0" stop-color="#ffbf0b"/><stop offset="0.16" stop-color="#ffb60b"/><stop offset="0.43" stop-color="#ff9c0d"/><stop offset="0.76" stop-color="#ff730f"/><stop offset="0.98" stop-color="#ff5510"/></linearGradient><linearGradient id="a48fb354-a014-4b79-b83b-13ea1522d488" x1="-1.25" y1="27.83" x2="293.13" y2="70.48" xlink:href="#a2b0725c-29dd-4d83-be8a-2a33d1a2857b"/></defs><path d="M53.83,66.64l-2-2a8.56,8.56,0,0,0-5.64-2.49l-1.66-.08-2.93-2.93a65.71,65.71,0,0,0,11-14.55c3.48-6.7,2.52-9.8,1.1-11.22S49.21,31,42.51,34.49A65.41,65.41,0,0,0,28,45.48L14.46,32,12.7,33.74l13.5,13.5A67,67,0,0,0,15.08,61.92c-3.49,6.7-2.53,9.8-1.11,11.22a4.8,4.8,0,0,0,3.56,1.29c1.79,0,4.27-.62,7.66-2.39A66.82,66.82,0,0,0,39.87,60.92l2.93,2.93.08,1.66a8.53,8.53,0,0,0,2.5,5.63l2,2a4.59,4.59,0,0,0,6.48,0,4.59,4.59,0,0,0,0-6.47ZM24,69.83c-4,2.08-7.18,2.68-8.3,1.55s-.54-4.31,1.55-8.31a65.66,65.66,0,0,1,11.54-15A64.42,64.42,0,0,1,43.66,36.7a15.68,15.68,0,0,1,6.53-2.11,4.68,4.68,0,0,1,.55,0L42.06,43.3V41.46H39.57v3.17l-3.14-.44-.34,2.46,2.29.33-5.1,5.1-2.45-2.45-.88.88a60.21,60.21,0,0,0-9,11.27l-.05.07a3.19,3.19,0,0,0,4.39,4.38A58.17,58.17,0,0,0,36.6,57.17l.88-.88L35,53.84l4.53-4.53v1.35h2.49V47.49l3.13.45.35-2.47-1.87-.26,8.83-8.83c.2,1.56-.53,4.09-2.08,7.07A64.73,64.73,0,0,1,39,58.29,65.48,65.48,0,0,1,24,69.83ZM34,56.28a57.35,57.35,0,0,1-9.32,7.42l-.64.39a.68.68,0,0,1-.86-.11.67.67,0,0,1-.11-.86l0-.07a56.3,56.3,0,0,1,7.77-9.89ZM52.07,71.35a2.09,2.09,0,0,1-3,0l-2-2a6,6,0,0,1-1.77-4l0-.77.77,0a6,6,0,0,1,4,1.77l2,2A2.09,2.09,0,0,1,52.07,71.35Z" style="fill:url(#a2b0725c-29dd-4d83-be8a-2a33d1a2857b)"/><text transform="translate(56.99 61.87)" style="font-size:42.35403823852539px;fill:#fce290;font-family:TrebuchetMS, Trebuchet MS">goaadventure<tspan x="258.57" y="0" style="font-size:18.151729583740234px">.in</tspan></text><path d="M59,67.93l2.13-3.14a11.62,11.62,0,0,0,6.33,2.29,8.14,8.14,0,0,0,4.21-.92,2.64,2.64,0,0,0,1.54-2.28c0-1.8-1.3-2.69-3.89-2.69a15.48,15.48,0,0,0-2.4.33,15.54,15.54,0,0,1-2.71.33c-3.14,0-4.71-1.18-4.71-3.56a2.54,2.54,0,0,1,1.1-2A6.89,6.89,0,0,1,63.31,55a7.75,7.75,0,0,1-4.67-7.61,7.72,7.72,0,0,1,2.42-5.8,8.33,8.33,0,0,1,6-2.31,8.59,8.59,0,0,1,5.11,1.34l2-2.35,2.56,2.42-2.35,1.77a8.23,8.23,0,0,1,1.51,5.13,8,8,0,0,1-2.09,5.63,8.28,8.28,0,0,1-5.48,2.6L65,56.18a6.61,6.61,0,0,0-1.55.45c-.65.25-1,.59-1,1,0,.57.67.85,2,.85a18.74,18.74,0,0,0,2.77-.32,19,19,0,0,1,2.8-.32,7.61,7.61,0,0,1,5.09,1.56A5.38,5.38,0,0,1,77,63.73a5.73,5.73,0,0,1-2.74,4.94,11.92,11.92,0,0,1-6.93,1.89,14.75,14.75,0,0,1-4.53-.77A12.9,12.9,0,0,1,59,67.93Zm8.34-25.46A4.28,4.28,0,0,0,64,43.92a5.08,5.08,0,0,0-1.3,3.52,5.84,5.84,0,0,0,1.25,3.83,4.16,4.16,0,0,0,3.39,1.52,3.92,3.92,0,0,0,3.26-1.48,6,6,0,0,0,1.18-3.87,5.15,5.15,0,0,0-1.27-3.52A4.08,4.08,0,0,0,67.31,42.47Z" style="fill:url(#a48fb354-a014-4b79-b83b-13ea1522d488)"/><path d="M79.59,50.75a12.15,12.15,0,0,1,2.76-8.29A10.23,10.23,0,0,1,97,42.34q2.63,3,2.63,8.41t-2.69,8.44a9.2,9.2,0,0,1-7.32,3.1,9.15,9.15,0,0,1-7.38-3.13A12.56,12.56,0,0,1,79.59,50.75Zm4.14,0q0,8.32,5.89,8.33a5,5,0,0,0,4.31-2.23,10.51,10.51,0,0,0,1.56-6.1q0-8.23-5.87-8.24a5.07,5.07,0,0,0-4.29,2.2A10,10,0,0,0,83.73,50.75Z" style="fill:url(#a48fb354-a014-4b79-b83b-13ea1522d488)"/><path d="M116.28,59.33q-2.36,3-7.22,3a6.23,6.23,0,0,1-4.52-1.9,6.36,6.36,0,0,1-1.91-4.7,7,7,0,0,1,3-5.7,11.75,11.75,0,0,1,7.51-2.33,8.81,8.81,0,0,1,2.82.54c0-3.58-1.6-5.38-4.8-5.38a7.68,7.68,0,0,0-5.67,2l-1.65-3.29A9.66,9.66,0,0,1,106.88,40a12.1,12.1,0,0,1,3.77-.65c3.21,0,5.55.73,7,2.19s2.18,3.79,2.18,7v7.94c0,2,.58,3.24,1.74,3.89v2a7.37,7.37,0,0,1-3.59-.68A3.8,3.8,0,0,1,116.28,59.33ZM115.91,51a14.74,14.74,0,0,0-2.61-.41,7.44,7.44,0,0,0-4.86,1.53,4.54,4.54,0,0,0-1.88,3.62q0,3.45,4.07,3.45a6.7,6.7,0,0,0,5.28-2.83Z" style="fill:url(#a48fb354-a014-4b79-b83b-13ea1522d488)"/><path d="M138.53,59.33q-2.35,3-7.22,3a6.25,6.25,0,0,1-4.52-1.9,6.36,6.36,0,0,1-1.91-4.7,7,7,0,0,1,3-5.7,11.75,11.75,0,0,1,7.51-2.33,8.81,8.81,0,0,1,2.82.54c0-3.58-1.6-5.38-4.8-5.38a7.71,7.71,0,0,0-5.67,2L126,41.52A9.66,9.66,0,0,1,129.13,40a12.2,12.2,0,0,1,3.77-.65c3.22,0,5.55.73,7,2.19s2.18,3.79,2.18,7v7.94c0,2,.58,3.24,1.73,3.89v2a7.3,7.3,0,0,1-3.58-.68A3.78,3.78,0,0,1,138.53,59.33ZM138.16,51a14.61,14.61,0,0,0-2.61-.41,7.48,7.48,0,0,0-4.86,1.53,4.57,4.57,0,0,0-1.88,3.62q0,3.45,4.07,3.45a6.68,6.68,0,0,0,5.28-2.83Z" style="fill:url(#a48fb354-a014-4b79-b83b-13ea1522d488)"/><path d="M162.31,61.85V60.22a8.07,8.07,0,0,1-5.95,2,8.54,8.54,0,0,1-6.75-3A11.72,11.72,0,0,1,147,51.35a12.76,12.76,0,0,1,3-8.52,9,9,0,0,1,7.09-3.52,7.52,7.52,0,0,1,5.21,1.61V30.64h3.93V61.85Zm0-17a4.64,4.64,0,0,0-4.07-2.23A6.3,6.3,0,0,0,153.12,45a9.08,9.08,0,0,0-2,6q0,8,7.28,8a5.66,5.66,0,0,0,2.23-.59,3.27,3.27,0,0,0,1.63-1.25Z" style="fill:url(#a48fb354-a014-4b79-b83b-13ea1522d488)"/><path d="M179.85,62.29h-1l-9.5-22.63h4.3l5.86,15.51,6-15.51h4.12Z" style="fill:url(#a48fb354-a014-4b79-b83b-13ea1522d488)"/><path d="M211.26,51.18h-16a8,8,0,0,0,2.13,6A6.68,6.68,0,0,0,202.27,59a8.23,8.23,0,0,0,5.62-2l1.66,2.83a7.53,7.53,0,0,1-2.79,1.58,15.15,15.15,0,0,1-5.26.87,9.79,9.79,0,0,1-7.09-2.84,11.12,11.12,0,0,1-3.25-8.39,11.82,11.82,0,0,1,3.33-8.79,9.65,9.65,0,0,1,7-3A10.08,10.08,0,0,1,209,42a9.09,9.09,0,0,1,2.6,6.8A8.66,8.66,0,0,1,211.26,51.18Zm-9.53-8.56a6.21,6.21,0,0,0-6.33,5.71h12.27a5.63,5.63,0,0,0-1.49-4A5.84,5.84,0,0,0,201.73,42.62Z" style="fill:url(#a48fb354-a014-4b79-b83b-13ea1522d488)"/><path d="M229.34,61.87V49q0-3.54-1.07-5a4.17,4.17,0,0,0-3.56-1.41,5.94,5.94,0,0,0-2.82.8,6.28,6.28,0,0,0-2.25,2V61.87h-3.93V39.72h2.69l1.24,2.86c1.3-2.18,3.41-3.27,6.35-3.27q7.27,0,7.28,8.85V61.87Z" style="fill:url(#a48fb354-a014-4b79-b83b-13ea1522d488)"/><path d="M240.26,42.82h-2.57v-3.1h2.57V35.09l3.93-1.51v6.14h6.08v3.1h-6.08v11a6.45,6.45,0,0,0,.94,4,3.67,3.67,0,0,0,3,1.18,7.24,7.24,0,0,0,3.12-.77l.58,3.45a21.42,21.42,0,0,1-5.36.63,5.81,5.81,0,0,1-4.43-2,7,7,0,0,1-1.81-4.93Z" style="fill:url(#a48fb354-a014-4b79-b83b-13ea1522d488)"/><path d="M259.37,39.72V53.85q0,5.13,4.44,5.13a6.16,6.16,0,0,0,3.56-1.12,5.29,5.29,0,0,0,2.13-2.59V39.72h3.93V61.87H269.5V58.81a6.09,6.09,0,0,1-2.66,2.39,8.18,8.18,0,0,1-3.9,1.09,7.23,7.23,0,0,1-5.57-2.09,8.43,8.43,0,0,1-1.93-5.94V39.72Z" style="fill:url(#a48fb354-a014-4b79-b83b-13ea1522d488)"/><path d="M290.82,43.51a4.43,4.43,0,0,0-2.58-.89,4.61,4.61,0,0,0-3.65,1.92A7.12,7.12,0,0,0,283,49.17v12.7H279.1V39.72H283v3.54a6.88,6.88,0,0,1,6.39-3.95,17.74,17.74,0,0,1,3,.37Z" style="fill:url(#a48fb354-a014-4b79-b83b-13ea1522d488)"/><path d="M313.9,51.18h-16a8,8,0,0,0,2.13,6A6.67,6.67,0,0,0,304.91,59a8.25,8.25,0,0,0,5.62-2l1.66,2.83a7.5,7.5,0,0,1-2.8,1.58,15.06,15.06,0,0,1-5.25.87,9.79,9.79,0,0,1-7.09-2.84,11.08,11.08,0,0,1-3.25-8.39,11.82,11.82,0,0,1,3.33-8.79,9.65,9.65,0,0,1,7.05-3A10.09,10.09,0,0,1,311.61,42a9.13,9.13,0,0,1,2.6,6.8A8.66,8.66,0,0,1,313.9,51.18Zm-9.53-8.56A6.19,6.19,0,0,0,298,48.33H310.3a5.59,5.59,0,0,0-1.49-4A5.81,5.81,0,0,0,304.37,42.62Z" style="fill:url(#a48fb354-a014-4b79-b83b-13ea1522d488)"/><path d="M318.69,59.38a1.33,1.33,0,0,1,.94,2.27,1.25,1.25,0,0,1-.94.4,1.34,1.34,0,0,1-.94-2.28A1.29,1.29,0,0,1,318.69,59.38Z" style="fill:url(#a48fb354-a014-4b79-b83b-13ea1522d488)"/><path d="M324.23,61.87V53.8h-1.3V52.38h3v9.49Zm.93-13.08a1,1,0,0,1,.74.31,1,1,0,0,1,.3.73,1,1,0,0,1-.3.74,1,1,0,0,1-.74.3,1,1,0,0,1-1-1,1,1,0,0,1,1-1Z" style="fill:url(#a48fb354-a014-4b79-b83b-13ea1522d488)"/><path d="M334.44,61.87V56.35a3.67,3.67,0,0,0-.46-2.12,1.78,1.78,0,0,0-1.53-.61,2.48,2.48,0,0,0-1.2.35,2.62,2.62,0,0,0-1,.85v7h-1.69V52.38h1.16l.53,1.22A2.92,2.92,0,0,1,333,52.2q3.12,0,3.12,3.8v5.87Z" style="fill:url(#a48fb354-a014-4b79-b83b-13ea1522d488)"/></svg>