<svg id="e577bb18-60b1-4756-9d73-06ea545515af" data-name="Layer 1" xmlns="http://www.w3.org/2000/svg" viewBox="0 0 350 100"><path d="M53.83,66.64l-2-2a8.56,8.56,0,0,0-5.64-2.49l-1.66-.08-2.93-2.93a65.71,65.71,0,0,0,11-14.55c3.48-6.7,2.52-9.8,1.1-11.22S49.21,31,42.51,34.49A65.41,65.41,0,0,0,28,45.48L14.46,32,12.7,33.74l13.5,13.5A67,67,0,0,0,15.08,61.92c-3.49,6.7-2.53,9.8-1.11,11.22a4.8,4.8,0,0,0,3.56,1.29c1.79,0,4.27-.62,7.66-2.39A66.82,66.82,0,0,0,39.87,60.92l2.93,2.93.08,1.66a8.53,8.53,0,0,0,2.5,5.63l2,2a4.59,4.59,0,0,0,6.48,0,4.59,4.59,0,0,0,0-6.47ZM24,69.83c-4,2.08-7.18,2.68-8.3,1.55s-.54-4.31,1.55-8.31a65.66,65.66,0,0,1,11.54-15A64.42,64.42,0,0,1,43.66,36.7a15.68,15.68,0,0,1,6.53-2.11,4.68,4.68,0,0,1,.55,0L42.06,43.3V41.46H39.57v3.17l-3.14-.44-.34,2.46,2.29.33-5.1,5.1-2.45-2.45-.88.88a60.21,60.21,0,0,0-9,11.27l-.05.07a3.19,3.19,0,0,0,4.39,4.38A58.17,58.17,0,0,0,36.6,57.17l.88-.88L35,53.84l4.53-4.53v1.35h2.49V47.49l3.13.45.35-2.47-1.87-.26,8.83-8.83c.2,1.56-.53,4.09-2.08,7.07A64.73,64.73,0,0,1,39,58.29,65.48,65.48,0,0,1,24,69.83ZM34,56.28a57.35,57.35,0,0,1-9.32,7.42l-.64.39a.68.68,0,0,1-.86-.11.67.67,0,0,1-.11-.86l0-.07a56.3,56.3,0,0,1,7.77-9.89ZM52.07,71.35a2.09,2.09,0,0,1-3,0l-2-2a6,6,0,0,1-1.77-4l0-.77.77,0a6,6,0,0,1,4,1.77l2,2A2.09,2.09,0,0,1,52.07,71.35Z" style="fill:#fff"/><text transform="translate(56.99 61.87)" style="font-size:42.35403823852539px;fill:#fce290;font-family:TrebuchetMS, Trebuchet MS">goaadventure<tspan x="258.57" y="0" style="font-size:18.151729583740234px">.in</tspan></text><text transform="translate(56.99 61.87)" style="font-size:42.35403823852539px;fill:#fff;font-family:TrebuchetMS, Trebuchet MS">goaadventure<tspan x="258.57" y="0" style="font-size:18.151729583740234px">.in</tspan></text></svg>